<svg width="256" height="256" xmlns="http://www.w3.org/2000/svg" fill="none">
 <defs>
  <linearGradient y2="0.96296" x2="0.92593" y1="0.03704" x1="0.07407" id="logo-bg">
   <stop stop-color="#1D4ED8" offset="0"/>
   <stop stop-color="#3B82F6" offset="0.54"/>
   <stop stop-color="#22D3EE" offset="1"/>
  </linearGradient>
  <radialGradient gradientTransform="matrix(145.66506958007812,123.0965347290039,-134.75479125976562,159.46075439453125,78.92423987388611,59.30302810668945)" gradientUnits="userSpaceOnUse" r="1" cy="0" cx="0" id="logo-glow">
   <stop stop-opacity="0.34" stop-color="#FFFFFF" offset="0"/>
   <stop stop-opacity="0" stop-color="#FFFFFF" offset="1"/>
  </radialGradient>
  <linearGradient y2="1.04307" x2="0.98182" y1="0.04439" x1="0.07273" id="logo-bubble-b">
   <stop stop-color="#DBEAFE" offset="0"/>
   <stop stop-color="#FFFFFF" offset="1"/>
  </linearGradient>
  <linearGradient y2="0.96651" x2="0.92857" y1="-0.04296" x1="0.07143" id="logo-bubble-a">
   <stop stop-color="#FFFFFF" offset="0"/>
   <stop stop-color="#E0F2FE" offset="1"/>
  </linearGradient>
 </defs>
 <g>
  <title>Layer 1</title>
  <rect id="svg_1" fill="url(#logo-bg)" rx="56" height="216" width="216" y="20" x="20"/>
  <rect id="svg_2" fill="url(#logo-glow)" rx="56" height="216" width="216" y="20" x="20"/>
  <path id="svg_5" fill="url(#logo-bubble-a)" d="m66,76c-12.15,0 -22,9.85 -22,22l0,32c0,12.15 9.85,22 22,22l16.8,0l11.48,15.04c3.05,4 9.44,1.84 9.44,-3.19l0,-11.85l30.28,0c12.15,0 22,-9.85 22,-22l0,-32c0,-12.15 -9.85,-22 -22,-22l-68,0z"/>
  <path id="svg_6" fill-opacity="0.92" fill="url(#logo-bubble-b)" d="m124,102c-12.15,0 -22,9.85 -22,22l0,30c0,12.15 9.85,22 22,22l30.28,0l0,10.85c0,5.03 6.39,7.19 9.44,3.19l11.48,-14.04l14.8,0c12.15,0 22,-9.85 22,-22l0,-30c0,-12.15 -9.85,-22 -22,-22l-66,0z"/>
  <circle id="svg_4" fill-opacity="0.1" fill="#FFFFFF" r="18" cy="198" cx="66"/>
  <g id="svg_28">
   <circle id="svg_3" fill-opacity="0.14" fill="#FFFFFF" r="26" cy="64" cx="191.0568"/>
   <path stroke="url(#gradbox_stroke)" id="svg_26" d="m175.08829,56.56453c0.00089,-0.33833 0.30374,-2.41271 0.67324,-4.60977c1.15218,-6.85081 1.16912,-6.88104 2.63199,-4.69754l0.86549,1.29185l2.53112,-1.27771c3.34788,-1.69 7.34269,-2.31519 11.01484,-1.72381c1.55879,0.25105 3.21278,0.65908 3.67554,0.90674c0.91875,0.49169 0.85986,0.91395 -0.60446,4.33388c-0.80256,1.8744 -0.8796,1.92783 -2.26593,1.57145c-2.35959,-0.60653 -6.20169,-0.41548 -8.05667,0.40061l-1.73922,0.76519l1.22081,1.27424c0.67145,0.70085 1.05181,1.37871 0.84527,1.50635c-0.20655,0.12765 -2.71958,0.37645 -5.58449,0.55286c-4.29834,0.2647 -5.2087,0.21325 -5.20752,-0.29436l0,0zm22.13309,18.88908l-1.86201,-2.46619l1.69537,-1.6394c1.74492,-1.68729 3.00338,-4.05623 3.5578,-6.69729l0.31639,-1.50714l-1.82485,0.29179c-1.00367,0.16051 -1.83103,0.13965 -1.83857,-0.04633c-0.03524,-0.86827 4.73668,-9.42747 5.20051,-9.32797c0.72931,0.15645 8.12862,6.56509 8.12862,7.04028c0,0.21209 -0.77764,0.50997 -1.72808,0.66195l-1.72808,0.27632l-0.17055,2.94683c-0.21875,3.77942 -2.21029,8.14139 -4.98307,10.91416c-1.11055,1.11057 -2.21771,2.0192 -2.46034,2.0192c-0.24263,0 -1.27905,-1.10981 -2.30315,-2.46622l0,0zm-16.80834,6.91255c0,-0.27269 0.29253,-1.06148 0.65007,-1.75288c0.64869,-1.25442 0.64493,-1.26051 -1.77342,-2.8662c-3.78368,-2.51222 -6.5961,-6.97126 -7.48073,-11.86059l-0.29002,-1.60294l2.06784,-0.28342c4.2626,-0.58425 4.30153,-0.56659 5.15522,2.33862c0.57607,1.96044 1.28459,3.13529 2.81189,4.66259c1.12297,1.12298 2.19867,1.94479 2.39044,1.82627c0.19177,-0.11852 0.46934,-0.81883 0.61683,-1.55625c0.14749,-0.73743 0.45503,-1.34078 0.68342,-1.34078c0.52436,0 5.46229,7.7858 5.54068,8.73619c0.05235,0.63475 -2.61696,1.73377 -9.57359,3.94172c-0.44359,0.14078 -0.79864,0.03308 -0.79864,-0.24232l0,0z" stroke-width="0" fill="#ffffff"/>
  </g>
 </g>
</svg>